<svg width="202" height="39" viewBox="0 0 202 39" fill="none" xmlns="http://www.w3.org/2000/svg">
<path d="M180.378 16.52C180.378 14.6533 180.644 13.0133 181.178 11.6C181.711 10.16 182.458 8.96 183.418 8C184.378 7.01333 185.538 6.26667 186.898 5.76C188.258 5.25333 189.764 5 191.418 5C192.938 5 194.338 5.26667 195.618 5.8C196.898 6.33333 198.004 7.06667 198.938 8C199.898 8.93333 200.644 10.0533 201.178 11.36C201.711 12.6667 201.978 14.08 201.978 15.6C201.978 17.1467 201.711 18.5733 201.178 19.88C200.671 21.16 199.951 22.2667 199.018 23.2C198.111 24.1333 197.031 24.8667 195.778 25.4C194.551 25.9067 193.204 26.16 191.738 26.16C190.218 26.16 188.871 25.8667 187.698 25.28C186.524 24.6933 185.604 23.9733 184.938 23.12V33.64H180.378V16.52ZM191.098 22.12C192.004 22.12 192.831 21.96 193.578 21.64C194.351 21.2933 195.004 20.8267 195.538 20.24C196.098 19.6533 196.524 18.96 196.818 18.16C197.111 17.36 197.258 16.4933 197.258 15.56C197.258 14.6533 197.111 13.8133 196.818 13.04C196.524 12.24 196.098 11.56 195.538 11C195.004 10.4133 194.351 9.96 193.578 9.64C192.831 9.29333 192.004 9.12 191.098 9.12C190.191 9.12 189.351 9.28 188.578 9.6C187.831 9.92 187.178 10.36 186.618 10.92C186.084 11.48 185.658 12.16 185.338 12.96C185.044 13.7333 184.898 14.6 184.898 15.56C184.898 16.4933 185.044 17.36 185.338 18.16C185.658 18.96 186.084 19.6533 186.618 20.24C187.151 20.8267 187.791 21.2933 188.538 21.64C189.311 21.96 190.164 22.12 191.098 22.12Z" fill="#7693FF"/>
<path d="M155.378 16.52C155.378 14.6533 155.645 13.0133 156.178 11.6C156.711 10.16 157.458 8.96 158.418 8C159.378 7.01333 160.538 6.26667 161.898 5.76C163.258 5.25333 164.765 5 166.418 5C167.938 5 169.338 5.26667 170.618 5.8C171.898 6.33333 173.005 7.06667 173.938 8C174.898 8.93333 175.645 10.0533 176.178 11.36C176.711 12.6667 176.978 14.08 176.978 15.6C176.978 17.1467 176.711 18.5733 176.178 19.88C175.671 21.16 174.951 22.2667 174.018 23.2C173.111 24.1333 172.031 24.8667 170.778 25.4C169.551 25.9067 168.205 26.16 166.738 26.16C165.218 26.16 163.871 25.8667 162.698 25.28C161.525 24.6933 160.605 23.9733 159.938 23.12V33.64H155.378V16.52ZM166.098 22.12C167.005 22.12 167.831 21.96 168.578 21.64C169.351 21.2933 170.005 20.8267 170.538 20.24C171.098 19.6533 171.525 18.96 171.818 18.16C172.111 17.36 172.258 16.4933 172.258 15.56C172.258 14.6533 172.111 13.8133 171.818 13.04C171.525 12.24 171.098 11.56 170.538 11C170.005 10.4133 169.351 9.96 168.578 9.64C167.831 9.29333 167.005 9.12 166.098 9.12C165.191 9.12 164.351 9.28 163.578 9.6C162.831 9.92 162.178 10.36 161.618 10.92C161.085 11.48 160.658 12.16 160.338 12.96C160.045 13.7333 159.898 14.6 159.898 15.56C159.898 16.4933 160.045 17.36 160.338 18.16C160.658 18.96 161.085 19.6533 161.618 20.24C162.151 20.8267 162.791 21.2933 163.538 21.64C164.311 21.96 165.165 22.12 166.098 22.12Z" fill="#7693FF"/>
<path d="M151.164 25.56C150.898 25.6133 150.471 25.6667 149.884 25.72C149.324 25.8 148.658 25.8667 147.884 25.92C147.111 26 146.244 26.0667 145.284 26.12C144.324 26.1733 143.324 26.2 142.284 26.2C140.204 26.2 138.498 26.0133 137.164 25.64C135.858 25.2933 134.818 24.8267 134.044 24.24C133.298 23.6267 132.778 22.9333 132.484 22.16C132.218 21.36 132.084 20.5467 132.084 19.72C132.084 18.6267 132.244 17.6667 132.564 16.84C132.911 16.0133 133.458 15.32 134.204 14.76C134.978 14.2 135.978 13.7867 137.204 13.52C138.431 13.2267 139.924 13.08 141.684 13.08C142.698 13.08 143.658 13.12 144.564 13.2C145.471 13.2533 146.151 13.3067 146.604 13.36C146.604 12.4267 146.444 11.6533 146.124 11.04C145.831 10.4267 145.418 9.94667 144.884 9.6C144.351 9.25333 143.711 9.01333 142.964 8.88C142.218 8.74667 141.391 8.68 140.484 8.68C138.964 8.68 137.738 8.85333 136.804 9.2C135.898 9.54667 135.298 9.84 135.004 10.08C134.844 9.94667 134.618 9.69333 134.324 9.32C134.058 8.94667 133.924 8.49333 133.924 7.96C133.924 7.58667 134.018 7.22667 134.204 6.88C134.418 6.50667 134.778 6.18667 135.284 5.92C135.791 5.62667 136.471 5.4 137.324 5.24C138.178 5.08 139.258 5 140.564 5C142.138 5 143.564 5.16 144.844 5.48C146.151 5.77333 147.271 6.25333 148.204 6.92C149.138 7.58667 149.858 8.46667 150.364 9.56C150.898 10.6533 151.164 11.9733 151.164 13.52V25.56ZM146.644 16.68C146.378 16.6267 145.871 16.5467 145.124 16.44C144.404 16.3333 143.311 16.28 141.844 16.28C140.031 16.28 138.711 16.56 137.884 17.12C137.058 17.6533 136.644 18.5067 136.644 19.68C136.644 20.16 136.724 20.6 136.884 21C137.071 21.4 137.378 21.7467 137.804 22.04C138.231 22.3067 138.804 22.52 139.524 22.68C140.271 22.8133 141.191 22.88 142.284 22.88C143.511 22.88 144.484 22.84 145.204 22.76C145.924 22.6533 146.404 22.5733 146.644 22.52V16.68Z" fill="#7693FF"/>
<path d="M107.604 16.52C107.604 14.6533 107.871 13.0133 108.404 11.6C108.938 10.16 109.684 8.96 110.644 8C111.604 7.01333 112.764 6.26667 114.124 5.76C115.484 5.25333 116.991 5 118.645 5C120.165 5 121.564 5.26667 122.844 5.8C124.124 6.33333 125.231 7.06667 126.164 8C127.124 8.93333 127.871 10.0533 128.404 11.36C128.938 12.6667 129.204 14.08 129.204 15.6C129.204 17.1467 128.938 18.5733 128.404 19.88C127.898 21.16 127.178 22.2667 126.244 23.2C125.338 24.1333 124.258 24.8667 123.004 25.4C121.778 25.9067 120.431 26.16 118.964 26.16C117.444 26.16 116.098 25.8667 114.924 25.28C113.751 24.6933 112.831 23.9733 112.164 23.12V33.64H107.604V16.52ZM118.324 22.12C119.231 22.12 120.058 21.96 120.804 21.64C121.578 21.2933 122.231 20.8267 122.764 20.24C123.324 19.6533 123.751 18.96 124.044 18.16C124.338 17.36 124.484 16.4933 124.484 15.56C124.484 14.6533 124.338 13.8133 124.044 13.04C123.751 12.24 123.324 11.56 122.764 11C122.231 10.4133 121.578 9.96 120.804 9.64C120.058 9.29333 119.231 9.12 118.324 9.12C117.418 9.12 116.578 9.28 115.804 9.6C115.058 9.92 114.404 10.36 113.844 10.92C113.311 11.48 112.884 12.16 112.564 12.96C112.271 13.7333 112.124 14.6 112.124 15.56C112.124 16.4933 112.271 17.36 112.564 18.16C112.884 18.96 113.311 19.6533 113.844 20.24C114.378 20.8267 115.018 21.2933 115.764 21.64C116.538 21.96 117.391 22.12 118.324 22.12Z" fill="#F5F5F5"/>
<path d="M33.0222 16.52C33.0222 14.6533 33.2889 13.0133 33.8222 11.6C34.3556 10.16 35.1022 8.96 36.0622 8C37.0222 7.01333 38.1822 6.26667 39.5422 5.76C40.9022 5.25333 42.4089 5 44.0622 5C45.5822 5 46.9822 5.26667 48.2622 5.8C49.5422 6.33333 50.6489 7.06667 51.5822 8C52.5422 8.93333 53.2889 10.0533 53.8222 11.36C54.3556 12.6667 54.6222 14.08 54.6222 15.6C54.6222 17.1467 54.3556 18.5733 53.8222 19.88C53.3156 21.16 52.5956 22.2667 51.6622 23.2C50.7556 24.1333 49.6756 24.8667 48.4222 25.4C47.1956 25.9067 45.8489 26.16 44.3822 26.16C42.8622 26.16 41.5156 25.8667 40.3422 25.28C39.1689 24.6933 38.2489 23.9733 37.5822 23.12V33.64H33.0222V16.52ZM43.7422 22.12C44.6489 22.12 45.4756 21.96 46.2222 21.64C46.9956 21.2933 47.6489 20.8267 48.1822 20.24C48.7422 19.6533 49.1689 18.96 49.4622 18.16C49.7556 17.36 49.9022 16.4933 49.9022 15.56C49.9022 14.6533 49.7556 13.8133 49.4622 13.04C49.1689 12.24 48.7422 11.56 48.1822 11C47.6489 10.4133 46.9956 9.96 46.2222 9.64C45.4756 9.29333 44.6489 9.12 43.7422 9.12C42.8356 9.12 41.9956 9.28 41.2222 9.6C40.4756 9.92 39.8222 10.36 39.2622 10.92C38.7289 11.48 38.3022 12.16 37.9822 12.96C37.6889 13.7333 37.5422 14.6 37.5422 15.56C37.5422 16.4933 37.6889 17.36 37.9822 18.16C38.3022 18.96 38.7289 19.6533 39.2622 20.24C39.7956 20.8267 40.4356 21.2933 41.1822 21.64C41.9556 21.96 42.8089 22.12 43.7422 22.12Z" fill="#F5F5F5"/>
<path d="M83.8657 7.68C83.8657 6.93333 84.0791 6.4 84.5057 6.08C84.9324 5.73333 85.5324 5.56 86.3057 5.56C86.7857 5.56 87.2257 5.62666 87.6257 5.76C88.0257 5.86666 88.2924 5.94666 88.4257 6V16.52C88.4257 18.3333 88.8524 19.72 89.7057 20.68C90.5591 21.6133 91.8657 22.08 93.6257 22.08C95.3857 22.08 96.6924 21.6133 97.5457 20.68C98.3991 19.72 98.8257 18.3333 98.8257 16.52V7.68C98.8257 6.93333 99.0391 6.4 99.4657 6.08C99.8924 5.73333 100.479 5.56 101.226 5.56C101.732 5.56 102.186 5.62666 102.586 5.76C102.986 5.86666 103.252 5.94666 103.386 6V17.52C103.386 18.88 103.146 20.1067 102.666 21.2C102.212 22.2667 101.546 23.1733 100.666 23.92C99.8124 24.6667 98.7857 25.24 97.5857 25.64C96.3857 26.0133 95.0657 26.2 93.6257 26.2C92.1857 26.2 90.8657 26.0133 89.6657 25.64C88.4657 25.24 87.4391 24.6667 86.5857 23.92C85.7324 23.1733 85.0657 22.2667 84.5857 21.2C84.1057 20.1067 83.8657 18.88 83.8657 17.52V7.68Z" fill="#F5F5F5"/>
<path d="M69.0266 5C70.5733 5 72.0133 5.26667 73.3466 5.8C74.7066 6.33333 75.8799 7.08 76.8666 8.04C77.8533 8.97333 78.6266 10.0933 79.1866 11.4C79.7466 12.68 80.0266 14.08 80.0266 15.6C80.0266 17.0933 79.7466 18.4933 79.1866 19.8C78.6266 21.08 77.8533 22.2 76.8666 23.16C75.8799 24.0933 74.7066 24.84 73.3466 25.4C72.0133 25.9333 70.5733 26.2 69.0266 26.2C67.4799 26.2 66.0266 25.9333 64.6666 25.4C63.3333 24.84 62.1733 24.0933 61.1866 23.16C60.1999 22.2 59.4266 21.08 58.8666 19.8C58.3066 18.4933 58.0266 17.0933 58.0266 15.6C58.0266 14.08 58.3066 12.68 58.8666 11.4C59.4266 10.0933 60.1999 8.97333 61.1866 8.04C62.1733 7.08 63.3333 6.33333 64.6666 5.8C66.0266 5.26667 67.4799 5 69.0266 5ZM69.0266 22.16C69.9333 22.16 70.7733 22 71.5466 21.68C72.3199 21.3333 72.9733 20.8667 73.5066 20.28C74.0666 19.6667 74.4933 18.9733 74.7866 18.2C75.1066 17.4 75.2666 16.5333 75.2666 15.6C75.2666 14.6667 75.1066 13.8 74.7866 13C74.4933 12.1733 74.0666 11.4667 73.5066 10.88C72.9733 10.2933 72.3199 9.84 71.5466 9.52C70.7733 9.17333 69.9333 9 69.0266 9C68.0933 9 67.2399 9.17333 66.4666 9.52C65.7199 9.84 65.0666 10.2933 64.5066 10.88C63.9733 11.4667 63.5466 12.1733 63.2266 13C62.9333 13.8 62.7866 14.6667 62.7866 15.6C62.7866 16.5333 62.9333 17.4 63.2266 18.2C63.5466 18.9733 63.9733 19.6667 64.5066 20.28C65.0666 20.8667 65.7199 21.3333 66.4666 21.68C67.2399 22 68.0933 22.16 69.0266 22.16Z" fill="#F5F5F5"/>
<path d="M15.697 25.7245C15.5216 25.656 3.98837 19.5823 3.81296 19.4909C3.06746 19.1713 2.4316 18.6004 1.99308 17.8469C0.94062 15.9517 1.55455 13.5313 3.37443 12.4353C4.62423 11.6818 6.09328 11.7275 7.25537 12.4581C7.40886 12.5266 18.4597 18.3264 18.6351 18.4406C18.8105 18.5091 18.964 18.6004 19.1394 18.6917C19.8849 19.0114 20.5207 19.5823 20.9593 20.3358C22.0117 22.231 21.4197 24.6514 19.5998 25.7474C18.35 26.5237 16.8591 26.4552 15.697 25.7245Z" fill="#7693FF" fill-opacity="0.4"/>
<path d="M13.6579 12.0375C13.6899 12.5395 13.5376 13.0506 13.1896 13.454C12.4631 14.2958 11.1633 14.3523 10.2899 13.5986C9.7474 13.1305 9.48873 12.4637 9.5442 11.8231C9.53444 11.7229 9.58796 3.6303 9.59496 3.52925C9.56289 3.02733 9.71519 2.51621 10.0633 2.11282C10.7897 1.27096 12.0895 1.21452 12.9629 1.9682C13.5054 2.43628 13.7641 3.10313 13.7086 3.74369C13.72 3.86061 13.6649 11.9365 13.6579 12.0375Z" fill="#D6FF62"/>
<path d="M13.6579 36.0376C13.6899 36.5395 13.5376 37.0506 13.1896 37.454C12.4631 38.2958 11.1633 38.3523 10.2899 37.5986C9.7474 37.1305 9.48873 36.4637 9.5442 35.8231C9.53444 35.7229 9.58796 27.6303 9.59496 27.5293C9.56289 27.0273 9.71519 26.5162 10.0633 26.1128C10.7897 25.271 12.0895 25.2145 12.9629 25.9682C13.5054 26.4363 13.7641 27.1031 13.7086 27.7437C13.72 27.8606 13.6649 35.9365 13.6579 36.0376Z" fill="#D6FF62"/>
<path d="M6.52315 34.7663C5.73701 35.3055 4.75701 35.5534 3.76247 35.378C1.68692 35.012 0.333915 32.9504 0.713631 30.7969C0.949455 29.4595 1.78429 28.3913 2.88111 27.8601C3.03482 27.747 16.2636 19.9824 16.4349 19.8958C17.221 19.3566 18.201 19.1087 19.1956 19.284C21.2711 19.65 22.6241 21.7117 22.2444 23.8652C22.0086 25.2026 21.1738 26.2708 20.0769 26.8019C19.8976 26.9339 6.69448 34.6796 6.52315 34.7663Z" fill="#86A0FE"/>
<path d="M6.52339 18.2944C5.7371 18.8344 4.75701 19.0828 3.76247 18.9074C1.70854 18.5453 0.3303 16.5003 0.714491 14.3214C0.950609 12.9823 1.7857 11.9127 2.88268 11.3806C3.03641 11.2673 16.2633 3.51331 16.4347 3.42652C17.2209 2.8865 18.201 2.63808 19.1956 2.81344C21.2711 3.17942 22.6237 5.24328 22.2436 7.39944C22.0074 8.73853 21.1723 9.80819 20.0754 10.3402C19.9 10.4497 6.69074 18.2303 6.52339 18.2944Z" fill="#86A0FE"/>
</svg>
